<svg width="15" height="13" viewBox="0 0 15 13" fill="none" xmlns="http://www.w3.org/2000/svg">
<path d="M12.5738 7.53356V10.3734C12.5738 11.0819 12.3223 11.6876 11.8192 12.1907C11.3162 12.6938 10.7104 12.9453 10.0019 12.9453H2.57192C1.86345 12.9453 1.25768 12.6938 0.754609 12.1907C0.251536 11.6876 0 11.0819 0 10.3734V2.94339C0 2.23492 0.251536 1.62915 0.754609 1.12608C1.25768 0.623003 1.86345 0.371467 2.57192 0.371467H10.0019C10.377 0.371467 10.7253 0.445886 11.0468 0.594724C11.1361 0.636398 11.1897 0.704865 11.2075 0.80012C11.2254 0.90133 11.1986 0.987657 11.1271 1.0591L10.6896 1.49668C10.63 1.55622 10.5616 1.58599 10.4842 1.58599C10.4663 1.58599 10.4395 1.58003 10.4038 1.56813C10.2669 1.5324 10.1329 1.51454 10.0019 1.51454H2.57192C2.17899 1.51454 1.84262 1.65445 1.5628 1.93427C1.28298 2.21408 1.14308 2.55046 1.14308 2.94339V10.3734C1.14308 10.7663 1.28298 11.1027 1.5628 11.3825C1.84262 11.6623 2.17899 11.8022 2.57192 11.8022H10.0019C10.3949 11.8022 10.7312 11.6623 11.011 11.3825C11.2909 11.1027 11.4308 10.7663 11.4308 10.3734V8.1051C11.4308 8.0277 11.4576 7.96221 11.5111 7.90863L12.0827 7.33709C12.1422 7.27756 12.2107 7.24779 12.2881 7.24779C12.3238 7.24779 12.3595 7.25672 12.3952 7.27458C12.5143 7.32221 12.5738 7.40853 12.5738 7.53356ZM14.6367 3.16665L7.36749 10.4359C7.2246 10.5788 7.05493 10.6502 6.85846 10.6502C6.66199 10.6502 6.49232 10.5788 6.34943 10.4359L2.50941 6.59588C2.36653 6.45299 2.29508 6.28332 2.29508 6.08685C2.29508 5.89038 2.36653 5.72071 2.50941 5.57782L3.49174 4.59549C3.63463 4.45261 3.8043 4.38117 4.00077 4.38117C4.19724 4.38117 4.36691 4.45261 4.5098 4.59549L6.85846 6.94416L12.6364 1.16626C12.7792 1.02338 12.9489 0.951936 13.1454 0.951936C13.3419 0.951936 13.5115 1.02338 13.6544 1.16626L14.6367 2.14859C14.7796 2.29148 14.8511 2.46115 14.8511 2.65762C14.8511 2.85409 14.7796 3.02376 14.6367 3.16665Z" fill="#FFF602"/>
</svg>
